<svg width="64" height="64" viewBox="0 0 64 64" fill="none" xmlns="http://www.w3.org/2000/svg">
<path d="M23.1798 18.8205C20.4264 22.9941 16.5392 25.7344 13.3404 27.758C12.2876 28.4325 13.7858 32.2689 16.3367 31.2993C17.9159 30.709 20.6288 27.9688 21.3982 26.3668C19.0901 31.4679 17.3085 39.4357 15.8913 45.5908C15.4054 47.6144 21.5196 47.3193 22.046 45.5908C23.2608 39.6465 26.8645 25.8187 28.9295 19.1999C29.3344 17.9773 24.1111 17.4293 23.1798 18.8205Z" fill="#FF7A00"/>
<path d="M42.7706 18.146C35.6846 18.2303 31.1901 25.9873 30.0968 33.7023C28.8821 42.2182 31.2711 46.7291 36.9803 46.7291C44.0663 46.6448 48.6013 38.8455 49.6946 31.1306C50.9093 22.6147 48.4799 18.146 42.7706 18.146ZM42.4467 22.1931C44.3093 22.1931 44.1068 26.4932 43.4994 30.0345C42.6491 34.8827 40.1792 42.7662 37.3448 42.6819C35.4822 42.6819 35.6846 38.3396 36.292 34.7984C37.1423 29.9502 39.6123 22.1088 42.4467 22.1931Z" fill="#FF7A00"/>
<path d="M12.0381 15.9297L10.3784 14.1805L8 14.5601L9.14104 12.4314L8.04445 10.2802L10.4155 10.712L12.1122 9L12.4308 11.3967L14.5795 12.4909L12.4086 13.5404L12.0381 15.9297Z" fill="#FF7A00"/>
<path d="M35.7468 12.5026L32.8366 11.254L30.1801 13L30.439 9.78307L28 7.74603L31.0708 7.00529L32.2152 4L33.8516 6.75662L37 6.9418L34.9442 9.38095L35.7468 12.5026Z" fill="#717171"/>
<path d="M49.372 51.0678C50.089 51.5009 50.7827 51.9579 51.4811 52.4008C52.1794 52.8436 52.8664 53.3219 53.5486 53.7908C54.2308 54.2597 54.9339 54.7119 55.579 55.2237C56.2163 55.7452 56.8143 56.3132 57.3683 56.9231C57.4604 57.0321 57.5072 57.1725 57.499 57.3153C57.4909 57.4582 57.4283 57.5926 57.3244 57.6907C57.236 57.7688 57.1257 57.8176 57.0088 57.8305C56.8919 57.8433 56.7739 57.8196 56.6711 57.7626C55.957 57.3362 55.2759 56.8564 54.6336 56.3275C54.0167 55.8248 53.4294 55.2299 52.8 54.6451C52.1705 54.0602 51.6162 53.4837 51.022 52.9102C50.4279 52.3366 49.8383 51.7488 49.2646 51.1115C49.2576 51.0938 49.2569 51.0743 49.2627 51.0562C49.2686 51.0381 49.2805 51.0225 49.2964 51.0122C49.3138 51.0096 49.3314 51.014 49.3456 51.0244C49.3597 51.0348 49.3692 51.0504 49.372 51.0678V51.0678Z" fill="#717171"/>
<path d="M55.497 39L56.5713 40.6301L58.5126 40.6599L57.3048 42.1857L57.8754 44.054L56.0527 43.3692L54.4671 44.4857L54.5486 42.543L53 41.367L54.8672 40.8459L55.497 39Z" fill="#FF7A00"/>
<path d="M47.5543 14.0325C48.2965 13.1993 49.0676 12.3938 49.816 11.5741L52.129 9.17405C52.9032 8.37525 53.6583 7.5525 54.4901 6.82555C55.3157 6.08002 56.18 5.37868 57.0793 4.72444C57.1399 4.6825 57.2082 4.6531 57.2803 4.63792C57.3524 4.62274 57.4268 4.6221 57.4992 4.63603C57.5717 4.64996 57.6407 4.67819 57.7022 4.71907C57.7638 4.75995 57.8167 4.81267 57.8578 4.87416C57.929 4.97458 57.9646 5.09591 57.9591 5.21876C57.9535 5.34161 57.9071 5.45891 57.8272 5.55195C57.0924 6.38817 56.3116 7.18248 55.4883 7.93116C54.6788 8.68882 53.7957 9.35745 52.925 10.0531L50.3135 12.1235C49.4304 12.7922 48.5567 13.4811 47.6632 14.1627C47.6462 14.1717 47.6267 14.1749 47.6076 14.1719C47.5885 14.1688 47.571 14.1597 47.5575 14.1457C47.5425 14.1309 47.5338 14.1108 47.5332 14.0897C47.5326 14.0686 47.5402 14.0481 47.5543 14.0325V14.0325Z" fill="#717171"/>
<path d="M56.497 19L57.5713 20.6301L59.5052 20.6599L58.3049 22.1857L58.868 24.0465L57.0527 23.3692L55.4596 24.4857L55.5486 22.543L54 21.367L55.8672 20.8459L56.497 19Z" fill="#717171"/>
<path d="M20.4747 51.2096C19.5633 51.954 18.6372 52.6983 17.7184 53.4426C16.7996 54.1869 15.8512 54.9313 14.9102 55.6309C13.9693 56.3306 13.0505 57.1196 12.0576 57.7448C11.0656 58.3953 10.0337 58.982 8.96793 59.5015C8.8166 59.5658 8.6475 59.5743 8.49052 59.5255C8.33355 59.4767 8.19881 59.3737 8.11013 59.2347C8.02145 59.0957 7.98454 58.9297 8.00592 58.7661C8.02731 58.6024 8.10561 58.4516 8.22699 58.3403C9.12251 57.5617 10.068 56.8431 11.0574 56.1892C12.0354 55.5193 13.0875 54.9759 14.1174 54.3879C15.1473 53.7999 16.1772 53.2193 17.2294 52.6685C18.2815 52.1177 19.3262 51.552 20.3932 51.0235C20.4107 51.0084 20.433 51 20.4562 51C20.4793 51 20.5016 51.0084 20.5191 51.0235C20.5328 51.0371 20.5428 51.0539 20.5481 51.0724C20.5533 51.0909 20.5538 51.1105 20.5493 51.1292C20.5448 51.1479 20.5356 51.1652 20.5225 51.1793C20.5094 51.1934 20.493 51.2038 20.4747 51.2096Z" fill="#717171"/>
<path d="M35.8018 52.2754L35.1794 55.0443L37.091 57.1284L34.2755 57.3889L32.8899 59.8601L31.7785 57.255L29 56.6893L31.1339 54.821L30.8079 52L33.2307 53.4589L35.8018 52.2754Z" fill="#FF7A00"/>
<path d="M6.49695 36L7.57131 37.6226L9.51257 37.6599L8.30484 39.1783L8.87536 41.0466L7.05266 40.3618L5.46705 41.4783L5.54856 39.5356L4 38.3595L5.86716 37.8385L6.49695 36Z" fill="#717171"/>
</svg>
