<svg fill="none" height="63" viewBox="0 0 168 63" width="168" xmlns="http://www.w3.org/2000/svg" xmlns:xlink="http://www.w3.org/1999/xlink"><clipPath id="a"><path d="m0 0h168v63h-168z"/></clipPath><g clip-path="url(#a)"><path d="m22.9689 31.1578c-1.6374.4168-9.8693 2.2776-9.8693 2.2776-1.6448.3573-3.28971.7443-4.95682 1.0049-1.66711.2605-3.33422.4987-5.02355.588-.17464.0144-.34827-.0379-.48626-.1463-.138-.1085-.23022-.2653-.25826-.439-.02805-.1738.01013-.3518.10692-.4985.0968-.1468.24509-.2515.41532-.2932 1.63006-.4541 3.28976-.7444 4.94945-1.0495 1.6597-.3052 3.3416-.4392 5.0161-.6327 0 0 8.3949-.8709 10.0768-.9974.0251-.0003.0495.0086.0686.0251.019.0164.0315.0392.0351.0642-.0006.0219-.0081.0431-.0214.0604-.0134.0174-.0318.0301-.0527.0364z" fill="#717171"/><path d="m28.9927 54.6115c-.9113.7443-1.8375 1.4886-2.7562 2.233-.9188.7443-1.8672 1.4886-2.8082 2.1883s-1.8597 1.4887-2.8526 2.1139c-.992.6504-2.024 1.2371-3.0897 1.7566-.1513.0643-.3204.0729-.4774.024-.157-.0488-.2917-.1518-.3804-.2907-.0887-.139-.1256-.305-.1042-.4687s.0997-.3145.2211-.4257c.8955-.7786 1.841-1.4972 2.8303-2.1512.9781-.6699 2.0302-1.2132 3.0601-1.8012s2.0598-1.1686 3.1119-1.7194c1.0522-.5508 2.0969-1.1165 3.1638-1.645.0175-.0152.0399-.0235.063-.0235s.0455.0083.063.0235c.0137.0135.0236.0303.0289.0489.0053.0185.0057.038.0013.0568-.0045.0187-.0137.0359-.0268.05s-.0296.0246-.0479.0304z" fill="#717171"/><path d="m32.4234 14.946c-1.304-1.0792-7.8169-6.64681-7.8169-6.64681-1.2818-1.12393-2.6007-2.23298-3.8084-3.42391s-2.4229-2.40418-3.5194-3.72164c-.1163-.13171-.1789-.302596-.1753-.478589s.0731-.344157.1947-.470955c.1215-.1267975.2862-.20291128.4611-.21316178.1749-.01025052.3473.04611558.4827.15785778 1.3485 1.056948 2.5932 2.232988 3.838 3.386698s2.371 2.41907 3.5565 3.69187c0 0 5.7941 6.29704 6.913 7.58474.0172.018.0268.042.0268.067 0 .0249-.0096.0489-.0268.0669-.0083.0084-.0181.015-.0289.0195s-.0224.0068-.0341.0068-.0233-.0023-.0341-.0068-.0206-.0111-.0289-.0195z" fill="#717171"/><path d="m21.1463 22.7841c-1.0892-.2456-2.1562-.5359-3.2379-.8113l-3.2157-.8783c-1.0669-.3052-2.1487-.5732-3.186-.9528-1.0507-.3651-2.07977-.79-3.08231-1.2728-.06566-.0317-.12437-.0763-.17269-.131-.04832-.0548-.08529-.1187-.10875-.188-.02345-.0693-.03292-.1426-.02785-.2156.00507-.0731.02457-.1443.05737-.2097.05475-.1118.1447-.2023.2559-.2575s.23743-.0719.35908-.0477c1.0835.2465 2.15215.5547 3.20085.923 1.0521.3424 2.0672.8039 3.0897 1.2356l3.0749 1.3026c1.0151.454 2.0302.9006 3.0378 1.3695.0121.0147.0187.0331.0187.0521s-.0066.0375-.0187.0521c-.0106.0152-.0264.0258-.0444.0298z" fill="#717171"/><path d="m10.099 48.8058c-.7409.3275-1.54852.6178-2.3265.9081-.77799.2903-1.56338.5731-2.34877.8411-.78539.2679-1.55597.5657-2.36359.7443-.80163.2136-1.61943.3605-2.44509.4392-.132626.012-.26519-.0237-.374154-.1005-.108964-.0769-.1872781-.1901-.2210356-.3195s-.02077436-.2667.0366441-.3874c.0574185-.1207.1555565-.217.2769895-.2719.764276-.3228 1.551956-.5866 2.356176-.789.80415-.1995 1.61772-.3585 2.43769-.4764.82243-.1488 1.63746-.2902 2.4599-.4019.82244-.1116 1.64488-.2456 2.47474-.3349.0099-.0023.0202-.0023.0301 0 .0099.0024.0191.007.027.0134.0078.0065.0141.0147.0183.0239.0043.0093.0064.0194.0061.0296.0035.0083.0051.0172.0046.0262-.0004.009-.0029.0177-.0072.0256-.0042.0078-.0102.0146-.0175.0199-.0072.0052-.0156.0087-.0244.0102z" fill="#717171"/><path d="m40.7468 55.5026-2.9102-1.2486-2.6565 1.746.2589-3.2169-2.439-2.0371 3.0708-.7407 1.1444-3.0053 1.6364 2.7566 3.1484.1852-2.0558 2.4392z" fill="#717171"/><path d="m44.5747 4.40626-.6223 2.7689 1.9116 2.08412-2.8156.26052-1.3855 2.4712-1.1114-2.60518-2.7786-.56569 2.1339-1.86826-.326-2.82101 2.4229 1.45888z" fill="#ff7a00"/><path d="m24.125 12.1401.6224 1.846 1.8671.5284-1.5559 1.1686.0741 1.9427-1.5856-1.1239-1.8153.6699.5779-1.8608-1.2003-1.5333 1.9412-.0224z" fill="#717171"/><path d="m22.0381 49.9297-1.6597-1.7492-2.3784.3796 1.141-2.1287-1.0965-2.1512 2.371.4318 1.6967-1.712.3186 2.3967 2.1487 1.0942-2.1709 1.0495z" fill="#ff7a00"/><g fill="#717171"><path d="m56.2518 15.6309 1.0744 1.6226 1.9412.0372-1.2077 1.5184.5705 1.8683-1.8227-.6848-1.5856 1.1165.0815-1.9427-1.5485-1.176 1.8671-.521z"/><path d="m145.602 35.8024c1.8-.268 10.839-1.3621 10.839-1.3621 1.808-.2085 3.616-.4541 5.432-.5434 1.815-.0893 3.63-.1935 5.453-.1265.175.0012.344.069.472.1897s.206.2855.218.4614-.042.3499-.152.4873c-.111.1373-.268.2278-.442.2535-1.808.2977-3.616.4466-5.431.588s-3.63.134-5.453.1712c0 0-9.106.0967-10.929.067-.012 0-.025-.0025-.036-.0075-.011-.0049-.021-.0122-.03-.0213-.008-.0091-.014-.0198-.018-.0315s-.006-.0242-.005-.0365c.002-.022.01-.0428.025-.0591.015-.0162.035-.0269.057-.0302z"/><path d="m141.437 52.1032c1.386.6848 2.749 1.3919 4.12 2.099s2.727 1.4365 4.075 2.1734c1.349.7369 2.727 1.4366 4.031 2.233 1.313.8056 2.584 1.6776 3.808 2.6126.073.0562.134.1261.179.2059.046.0798.076.1679.087.2591.012.0913.006.184-.018.2728s-.066.172-.122.2447c-.101.1214-.238.207-.392.2445-.153.0375-.314.0248-.46-.0361-1.389-.672-2.742-1.4173-4.053-2.2329-1.311-.789-2.563-1.6971-3.83-2.568-1.267-.8708-2.534-1.7492-3.787-2.6498-1.252-.9006-2.504-1.8013-3.704-2.7317-.017-.018-.027-.042-.027-.067 0-.0249.01-.0489.027-.067.022-.005.046-.0023.066.0075z"/><path d="m154.797 25.4339c1.022-.4466 2.059-.8559 3.082-1.2876l3.104-1.2133c1.038-.4019 2.068-.8336 3.127-1.1463 1.062-.3321 2.14-.6078 3.231-.8262.072-.0127.146-.0109.218.0055.072.0163.14.0468.2.0898.06.0429.111.0974.15.1603s.065.1329.076.2059c.023.121.004.2461-.052.3554s-.148.1964-.259.2475c-1.017.4525-2.058.8476-3.119 1.1835-1.052.3498-2.134.588-3.216.856l-3.238.789c-1.082.2382-2.163.4987-3.26.7443-.019.0011-.038-.0041-.054-.0149-.016-.0107-.029-.0264-.035-.0446-.007-.0198-.007-.0417.001-.0611.009-.0195.024-.0349.044-.0432z"/><path d="m146.313 45.2701c.815.1935 1.615.4168 2.415.6252.801.2084 1.601.454 2.394.6922.792.2382 1.6.4541 2.371.7444.766.3019 1.509.6602 2.222 1.0718.121.0756.209.195.245.3335.035.1385.017.2856-.052.4108-.06.1014-.15.1815-.258.2294-.107.048-.227.0615-.342.0386-.81-.188-1.605-.4368-2.379-.7444-.741-.2902-1.481-.6773-2.259-1.042s-1.482-.7443-2.223-1.1091c-.741-.3647-1.482-.7443-2.223-1.176-.012-.0147-.019-.0331-.019-.0521s.007-.0374.019-.0521c.016-.0078.034-.009.05-.0035.017.0056.031.0175.039.0333z"/><path d="m147.32 19.2336c1.141-1.0495 2.297-2.0618 3.453-3.0889 1.156-1.0272 2.334-2.0172 3.512-3.0146s2.327-2.0245 3.564-2.9773c1.228-.93428 2.501-1.80623 3.816-2.61257.079-.04707.166-.07806.257-.09119.09-.01313.183-.00814.272.01468.088.02282.172.06302.245.1183s.135.12455.182.20384c.075.139.103.29832.082.45489-.021.15656-.092.30225-.201.41597-1.119 1.06439-2.319 2.03198-3.534 2.97728s-2.519 1.779-3.794 2.6424c-1.274.8634-2.541 1.7343-3.838 2.5754-1.296.8411-2.586 1.7566-3.89 2.5009-.008.0084-.018.015-.029.0195-.01.0045-.022.0068-.034.0068-.011 0-.023-.0023-.034-.0068s-.02-.0111-.029-.0195c-.012-.0174-.018-.0382-.018-.0595s.006-.0421.018-.0596z"/><path d="m142.334 13.7553-2.023-3.5728-4.075-.34981 2.756-3.03686-.926-3.99705 3.727 1.68963 3.497-2.1139-.452 4.07892 3.09 2.69448-4.001.8262z"/><path d="m117.083 52.207 1.074 1.6301 1.934.0298-1.2 1.5259.563 1.8608-1.815-.6774-1.593 1.1165.089-1.9427-1.549-1.176 1.867-.521z"/><path d="m160.924 39.4194 2.23 2.1735 3.045-.6104-1.37 2.7987 1.526 2.7242-3.082-.4391-2.105 2.2925-.533-3.0741-2.823-1.31 2.749-1.4514z"/><path d="m126.685 10.8672 1.075 1.6226 1.933.0298-1.207 1.5259.57 1.8682-1.815-.6847-1.593 1.1164.081-1.9427-1.548-1.176 1.874-.521z"/></g><g fill="#ff7a00"><path d="m135.458 55.3335 1.075 1.6301 1.941.0298-1.208 1.5258.571 1.8683-1.823-.6848-1.586 1.1165.082-1.9427-1.549-1.176 1.867-.5211z"/><path d="m148.639 24.0864 1.075 1.6227 1.934.0372-1.208 1.5259.57 1.8608-1.815-.6774-1.593 1.1165.082-1.9501-1.549-1.1686 1.875-.521z"/><path d="m39.1604 39.7287c2.3433-.1691 3.9193-2.3883 4.728-3.9734.1037-.1902-.7465-.8031-.8917-.5072-.6636 1.4371-1.7626 2.5573-2.4469 2.5362-.5184-.0212-.4355-.9088-.2281-1.6908.3318-1.247.8709-3.1069 1.3686-5.0301.1866-.7398-3.2349-.6552-3.3801-.1269-.2696 1.1202-.4977 2.2192-.788 3.3182h-1.9077c.2488-1.0144.5598-2.0501.8502-3.2125.1866-.7397-3.1728-.6552-3.3179-.1268-.7465 2.7898-1.3894 5.5162-2.1359 8.306-.2281.8243 3.1935.7186 3.3179.148.2696-1.1624.5599-2.1558.8087-3.1914h1.9493c-.4977 2.3037-.2074 3.7197 2.0736 3.5507z"/><path d="m48.3327 30.5773c-2.2188.3381-5.1635 2.4305-5.5989 5.7698-.3733 2.7898 1.3271 3.4027 2.6128 3.3816 1.887-.0212 2.8202-1.3104 3.463-2.5151-.1659 1.5217.2903 2.5151 1.3894 2.5151 2.0322 0 3.8363-1.6063 5.0805-3.9734.1244-.2113-.7466-.782-.8917-.4861-.6636 1.3949-1.97 2.4939-2.5921 2.5151-.4147.0211-.6221-.465-.3318-1.6486.1866-.782.394-1.4371.5599-1.9866-.2488-.4862-2.1981-1.0568-2.8617-.5496-.5598 1.5429-2.0321 4.9033-2.986 3.9945-.3111-.2958-.2903-1.1835.1659-2.4516.5184-1.4372 1.7004-2.5573 2.9653-2.6207 1.0576-.0634 2.281.2747 3.1105.951.3733.1057 1.3686-1.099 1.182-1.5639-1.2649-1.3104-3.7533-1.564-5.2671-1.3315z"/><path d="m67.5935 35.2269c-1.2857 2.4305-2.0529 2.6419-2.7373 2.6208-.8087-.0212-.4354-2.8955.1659-6.5941.1245-.7609-2.8202-.9722-3.1312-.1902-.9124 2.2614-2.3432 5.3471-2.6543 5.4528-.3733-.3593-.0622-3.5507.3525-5.3472.1867-.8242-2.758-.8031-3.0897-.1479-1.4723 2.8532-2.5092 4.6497-3.6082 8.0524-.3111.9933 2.7165.7608 2.8616.2113.2489-.9299.788-2.7475 1.2857-4.0579-.0829 1.8388.2074 3.1491.6429 3.7198.4976.634 1.3271.634 2.0736.1902.6429-.3804 1.5345-1.7542 2.3018-3.7832-.2696 2.7476.1037 4.3961 1.5967 4.3961 1.9078 0 3.3386-1.2892 4.8109-3.9945.1244-.2325-.7465-.782-.8709-.5284z"/><path d="m79.6228 19.5941c-2.0368 3.0223-4.9123 5.0067-7.2786 6.472-.7787.4885.3295 3.2665 2.2166 2.5644 1.1681-.4274 3.175-2.4117 3.7441-3.5718-1.7073 3.6939-3.0253 9.4637-4.0736 13.9209-.3595 1.4653 4.1634 1.2516 4.5528 0 .8986-4.3045 3.5644-14.3178 5.092-19.1107.2996-.8853-3.5644-1.2822-4.2533-.2748z"/><path d="m94.1149 19.1057c-5.2418.0611-8.5665 5.6782-9.3753 11.2649-.8986 6.1667.8687 9.4332 5.092 9.4332 5.2418-.061 8.5965-5.7088 9.4053-11.2954.8981-6.1667-.8986-9.4027-5.122-9.4027zm-.2396 2.9307c1.3778 0 1.2281 3.1139.7788 5.6782-.629 3.5108-2.4562 9.2196-4.5529 9.1585-1.3778 0-1.2281-3.1444-.7788-5.7088.6291-3.5107 2.4562-9.189 4.5529-9.1279z"/><path d="m109.323 39.7709c1.866-.0845 3.318-1.6485 4.603-3.9945.146-.2747-.725-.8031-.871-.5283-1.016 1.9021-1.949 2.6207-2.716 2.6207-1.182 0-.871-2.7687-.166-6.6786.145-.8032-3.235-.8877-3.753-.2114-1.887 2.4517-3.401 5.1992-4.251 8.1792-.27.9088 2.716.7186 2.882.1268.415-1.4583 1.12-3.5506 2.074-5.2626h.041c-.601 3.7409-.311 5.8544 2.157 5.7487z"/><path d="m118.618 30.5773c-3.007-.0423-5.329 1.9444-5.599 4.8821-.207 2.2403 1.099 4.2904 4.686 4.3115 2.53.0212 4.521-1.0356 6.139-4.0367.103-.1902-.768-.782-.913-.4861-1.078 2.0923-2.924 2.5996-4.106 2.5784-1.493-.0211-2.343-.5072-2.447-1.6274 2.344.3593 4.251-.3804 4.956-1.881.871-1.6696-.02-3.6986-2.716-3.7408zm-.29 2.0078c.311.0422.394.3804.269.8031-.186.6763-.912 1.5006-2.115 1.4583.311-1.3738 1.099-2.3671 1.846-2.2614z"/><path d="m135.239 39.7287c2.385-.1268 3.857-2.3037 4.749-3.9734.124-.2113-.747-.8031-.892-.5072-.788 1.6696-1.866 2.5362-2.385 2.5362-1.078 0 .104-2.9167.498-4.4595.436-1.6697-.083-2.811-1.908-2.811-1.265 0-2.53.7186-3.359 1.5429.021-1.0145-.581-1.5429-1.617-1.5429-1.12 0-2.53.93-3.318 1.5852.062-.2114.249-.8243.331-1.0356-.352-.6975-2.55-.8454-3.11-.3805-.871 2.7898-1.638 5.6853-2.343 8.4751.041.8243 3.027.7397 3.338.1691.436-1.9444.83-3.6141 1.41-5.6007.54-.5284 1.079-.8243 1.493-.8666.436-.0422.519.2748.415.6763-.477 1.9233-.933 3.7409-1.348 5.7065.27.7397 3.028.6129 3.339.1268.373-1.6486.975-4.3115 1.389-5.7699.457-.4227.913-.7608 1.369-.7819.539-.0212.601.3592.477.8876-.208.9088-.643 2.6419-.788 3.2971-.373 1.6696.145 2.832 2.26 2.7264z"/></g></g></svg>