<svg fill="none" height="24" viewBox="0 0 24 24" width="24" xmlns="http://www.w3.org/2000/svg"><path d="m19.5528 2.99675c-.2519.01172-.4892.08496-.7002.16699h-.0029c-.2139.08496-1.2305.5127-2.7744 1.16016-1.544.65039-3.5479 1.49414-5.5371 2.33203-3.9727 1.67285-7.87797 3.31933-7.87797 3.31933l.04687-.01757s-.26953.08791-.55078.28121c-.14355.0938-.30175.2227-.43945.4248-.1377.2022-.24902.5127-.20801.8321.06739.542.41895.8672.6709 1.0459.25488.1816.49805.2666.49805.2666h.00586l3.66211 1.2334c.16406.5273 1.11621 3.6562 1.34472 4.3769.13477.4307.2666.7002.43067.9053.0791.1055.17285.1934.28418.2637.04394.0263.09082.0468.13769.0644.01465.0088.0293.0117.04688.0147l-.03809-.0088c.01172.0029.02051.0117.0293.0146.02929.0088.0498.0117.08789.0176.58008.1758 1.0459-.1846 1.0459-.1846l.02636-.0205 2.16212-1.9687 3.624 2.7803.082.0351c.7559.3311 1.5206.1465 1.9249-.1787.4072-.3281.5654-.7471.5654-.7471l.0264-.0674 2.8007-14.34663c.0791-.3545.0996-.68555.0118-1.00782-.0879-.32226-.3135-.62402-.586-.78515-.2754-.16407-.5478-.21387-.7998-.20215zm-.0762 1.53808c-.0029.04688.0059.04102-.0146.13184v.00879l-2.7744 14.19724c-.0117.0205-.0323.0645-.0879.1084-.0586.0469-.1055.0762-.3486-.0205l-4.4327-3.3984-2.6777 2.4404.5625-3.5918s6.9434-6.47167 7.2422-6.74999.1992-.33691.1992-.33691c.0205-.33985-.4512-.09961-.4512-.09961l-9.1318 5.65721-.00293-.0146-4.37696-1.4737v-.0029c-.00293 0-.00879-.0029-.01171-.0029.00292 0 .02343-.0088.02343-.0088l.02344-.0117.02344-.0088s3.9082-1.64651 7.88089-3.31936c1.9892-.83789 3.9931-1.68164 5.5341-2.33203 1.5411-.64746 2.6807-1.12207 2.7452-1.14844.0615-.02344.0322-.02344.0761-.02344z" fill="#463672"/></svg>