<svg fill="none" height="14" viewBox="0 0 14 14" width="14" xmlns="http://www.w3.org/2000/svg"><path d="m10.585 5.81948-3.95003-4.0723c-.18216-.19444-.28296-.45486-.28068-.72518.00228-.270313.10745-.52889.29286-.720039.1854-.191148.43622-.29957337.69841-.30192232.2622-.00234895.5148.10156632.70341.28936432l5.65703 5.832147c.0931.09552.1671.20909.2176.33418.0504.12509.0764.25923.0764.39471 0 .13547-.026.26961-.0764.3947-.0505.12509-.1245.23866-.2176.33418l-5.65704 5.83218c-.18945.1831-.44058.2831-.70027.2788-.25968-.0044-.50753-.1127-.69112-.3021-.18358-.1894-.28849-.445-.29252-.7128-.00403-.2677.09313-.5265.27091-.7217l3.95004-4.0723h-9.586036c-.265216 0-.51957-.10862-.707106-.30197-.187536-.19334-.2928936-.45557-.29289359-.72899.00000002-.27343.10535759-.53566.29289359-.729.187536-.19335.44189-.30196.707106-.30196h9.586036z"/></svg>