<svg fill="none" height="24" viewBox="0 0 24 24" width="24" xmlns="http://www.w3.org/2000/svg"><g stroke="#463672" stroke-width="1.5"><path d="m12 16c2.2091 0 4-1.7909 4-4 0-2.20914-1.7909-4-4-4-2.20914 0-4 1.79086-4 4 0 2.2091 1.79086 4 4 4z" stroke-linecap="round" stroke-linejoin="round"/><path d="m3 16v-8c0-2.76142 2.23858-5 5-5h8c2.7614 0 5 2.23858 5 5v8c0 2.7614-2.2386 5-5 5h-8c-2.76142 0-5-2.2386-5-5z"/><path d="m17.5 6.51013.01-.01111" stroke-linecap="round" stroke-linejoin="round"/></g></svg>