<svg fill="none" height="24" viewBox="0 0 24 24" width="24" xmlns="http://www.w3.org/2000/svg"><path d="m21.4434 15.2899c.3601-1.0308.5566-2.1378.5566-3.2899s-.1965-2.25908-.5566-3.28985c-.0088-.03096-.0192-.06116-.0318-.09021-1.389-3.8556-5.0833-6.61994-9.4116-6.61994-4.32831 0-8.02273 2.76434-9.4116 6.61994-.01261.02914-.02312.05925-.03182.09021-.36009 1.03077-.55658 2.13775-.55658 3.28985s.19649 2.2591.55658 3.2899c.00879.0309.01921.0611.03182.0902 1.38897 3.8557 5.08329 6.6199 9.4116 6.6199 4.3283 0 8.0226-2.7643 9.4116-6.6199.0126-.0291.023-.0592.0318-.0902zm-9.4434 5.2767c-.3808 0-.9948-.6892-1.508-2.229-.2478-.743-.4461-1.5972-.59055-2.5263h4.19705c-.1444.9291-.3427 1.7832-.5904 2.5263-.5133 1.5398-1.1273 2.229-1.5081 2.229zm-2.27248-6.1888c-.0689-.7644-.10531-1.5618-.10531-2.3778s.03641-1.6134.10531-2.37777h4.54488c.0689.76437.1053 1.56177.1053 2.37777s-.0364 1.6134-.1053 2.3778zm-6.29412-2.3777c0-.8247.11746-1.6225.33602-2.37778h4.5203c-.06699.78008-.10101 1.57958-.10101 2.37778s.03392 1.5977.10101 2.3778h-4.5203c-.21856-.7554-.33602-1.5531-.33602-2.3778zm8.5666-8.56661c.3808 0 .9949.68922 1.5081 2.22897.2477.74303.446 1.59719.5904 2.52628h-4.19714c.14454-.92918.34284-1.78325.59054-2.52628.5133-1.53975 1.1273-2.22897 1.5081-2.22897zm3.7102 6.18883h4.5203c.2185.75528.336 1.55308.336 2.37778s-.1175 1.6225-.336 2.3778h-4.5203c.067-.7801.101-1.5796.101-2.3778s-.034-1.5977-.101-2.37778zm3.9602-1.43348h-4.1247c-.255-1.75812-.6924-3.33544-1.306-4.45757 2.3791.64497 4.3502 2.29167 5.4307 4.45757zm-9.9102-4.45767c-.61363 1.12214-1.05104 2.69945-1.30601 4.45767h-4.12466c1.08057-2.1659 3.05154-3.8126 5.43067-4.45767zm-5.43067 12.08013h4.12466c.25497 1.7581.69238 3.3354 1.30601 4.4576-2.37913-.645-4.3501-2.2916-5.43067-4.4576zm9.91017 4.4576c.6136-1.1221 1.051-2.6994 1.306-4.4576h4.1247c-1.0805 2.166-3.0516 3.8126-5.4307 4.4576z" fill="#463672"/></svg>