<svg fill="none" height="28" viewBox="0 0 28 28" width="28" xmlns="http://www.w3.org/2000/svg"><g fill="#ff7a00"><path d="m14 23.52c-5.26402 0-9.52002-4.256-9.52002-9.52 0-5.26402 4.256-9.52002 9.52002-9.52002 5.264 0 9.52 4.256 9.52 9.52002 0 5.264-4.256 9.52-9.52 9.52zm0-17.92002c-4.64802 0-8.40002 3.752-8.40002 8.40002 0 4.648 3.752 8.4 8.40002 8.4 4.648 0 8.4-3.752 8.4-8.4 0-4.64802-3.752-8.40002-8.4-8.40002z"/><path d="m12.8801 18.144-4.87204-4.872.784-.784 4.08804 4.088 6.328-6.328.784.784z"/></g></svg>