<svg fill="none" height="64" viewBox="0 0 64 64" width="64" xmlns="http://www.w3.org/2000/svg"><path d="m32 4c-5.8326.00688-11.4244 2.32694-15.5487 6.4513-4.1243 4.1243-6.4444 9.716-6.4513 15.5487-.00696 4.7664 1.55 9.4036 4.432 13.2 0 0 .6.79.698.904l16.87 19.896 16.878-19.906c.088-.106.69-.894.69-.894l.002-.006c2.8806-3.7948 4.4369-8.4297 4.43-13.194-.0069-5.8327-2.3269-11.4244-6.4512-15.5487-4.1243-4.12436-9.7161-6.44442-15.5488-6.4513zm7.2 32-7.2-4.582-7.2 4.582 1.2-8.148-6-5.506 8.4-1.014 3.6-7.332 3.824 7.334 8.176 1.012-6 5.506z" fill="#ff7a00"/></svg>