<svg fill="none" height="67" viewBox="0 0 200 67" width="200" xmlns="http://www.w3.org/2000/svg" xmlns:xlink="http://www.w3.org/1999/xlink"><clipPath id="a"><path d="m0 0h200v67h-200z"/></clipPath><g clip-path="url(#a)"><path clip-rule="evenodd" d="m42.0337 19.1301c.5785-.582 1.2816-1.0245 2.0562-1.2941.4761-.2306 1.0216-.2729 1.5276-.1185.5059.1545.9351.4944 1.2018.9519.2667.4574.3513.9988.2369 1.516s-.4193.9722-.854 1.2741c-1.4719 1.204-3.2471-.4614-3.8876-1.688-.0811-.2191-.1749-.4332-.2809-.6414zm7.0562 3.8035c2.1461-2.6107.7303-7.562-2.2472-9.0586-1.809-.9002-3.3708-.1013-4.7753 1.1253-.1573.1575-.3371.3038-.5281.4614-.0423 1.0914.0944 2.1824.4045 3.2296.4997-.4716 1.0777-.8524 1.7079-1.1253 2.0337-.8553 4.1123.0675 3.955 2.3068s-2.146 2.892-3.9213 1.7555c-.825-.5192-1.4688-1.282-1.8427-2.1831-.7526.9126-1.2937 1.981-1.5843 3.1283l-.1011.3714c.4878.2331.9265.5578 1.2921.9565 3.4944 3.6572 1.8989 10.5327.1573 14.6288-.7157 1.7049-1.6567 3.3058-2.7977 4.76 5.1573-2.892 9.5955-7.7758 8.5843-13.8299-.2135-1.2828-1.1236-2.9483-.4607-4.2423.5281-.9228 1.5393-1.4067 2.2472-2.2506zm-41.51687-3.0608c-2.07865-.8215-3.86517-2.2506-3.55056-4.5012.35955-2.982 4.25843-3.3758 4.49438 0 .0099 1.5519-.31592 3.0875-.95505 4.5012zm-4.7191 16.5306c2.11236 3.8485 6.01124 6.3354 10.21347 7.9896-.9123-1.0947-1.6202-2.345-2.0899-3.691-.4445-1.317-.6832-2.6948-.7078-4.0848-4.80903-2.6107-5.73037-7.8771-4.29217-12.6821.37078-1.2265.95505-2.4869 1.47191-3.7472-1.13474-.4409-2.14788-1.1469-2.95506-2.0593-.33237-.3587-.58289-.7856-.73419-1.2509-.15131-.4653-.19978-.9581-.14207-1.444.05772-.486.22024-.9536.47631-1.3704.25608-.4168.59957-.7729 1.00669-1.0435 2.13483-1.2491 3.88764.4839 3.88764 2.6444-.06271 1.5185-.44564 3.0065-1.12359 4.3662.93577.3205 1.90429.5356 2.88763.6414.5169-2.1156 1.382-4.2086 1.3483-6.3579-.0223-.7211-.201-1.4287-.5237-2.0738-.3227-.645-.7816-1.212-1.345-1.6616-.5633-.4497-1.21756-.77118-1.91737-.94228s-1.42841-.18768-2.13525-.04859c-1.42201.35431-2.71034 1.11537-3.7079 2.19037s-1.661231 2.4175-1.910082 3.8637c-.123382.7639-.058937 1.5465.187754 2.2798.24669.7333.668188 1.3954 1.227978 1.9288.55056.6077 1.47191 1.1928 1.65168 2.0593.24719 1.1253-.92134 2.2506-1.4382 3.2183-.81253 1.3966-1.20285 2.9993-1.12359 4.6137.04896 2.3312.65789 4.6162 1.77528 6.6618zm3.61798-12.8959c.33708-1.1253.83146-2.1606 1.2809-3.2633.94061.3503 1.92255.5773 2.92139.6751-.1895.7378-.3136 1.491-.3708 2.2506-.0899 1.688.2472 3.3759.3033 5.0076.0355 1.6001-.0245 3.2008-.1797 4.7937-.0675.5852-.0899 1.1253-.1236 1.7217-4.49441-1.7217-5.05621-7.1231-3.83149-11.2529zm9.47189-11.6805c-.6423-1.5229-1.0222-3.14377-1.1236-4.79379.079-1.14318.4435-2.24818 1.06-3.21357.6164-.96539 1.4651-1.76024 2.4681-2.31162 3.0337-1.789218 7.5955-1.327848 8.8202 2.25059.2688.79223.2923 1.6473.0675 2.45314-.8547-.78275-1.8714-1.36681-2.9776-1.71045-5.3371-1.46288-7.4045 5.5139-4.0337 8.7998.407.4055.873.747 1.382 1.0128-1.5003 2.7039-2.2746 5.7515-2.2471 8.8448-1.2347.0698-2.4305.4574-3.472 1.1253-.6461.5406-1.1425 1.2386-1.4416 2.0269-.2991.7882-.3908 1.6403-.2662 2.4742.1742 1.4131.7223 2.7538 1.5876 3.8835.8652 1.1297 2.0162 2.0073 3.3337 2.542.0608.5692.1622 1.1332.3034 1.6879.7977 3.4997 2.3595 5.6265 2.6404 9.43-5.2471-1.0466-9.7865-4.6362-10.337-9.7113-.1067-1.7876-.1067-3.58 0-5.3677.0061-2.0088-.1517-4.0147-.4719-5.9978-.1731-1.4379-.0778-2.8955.2809-4.2986 5.3932.1238 5.7865-4.6362 4.4943-9.1261zm5.8315 2.2506c.0899-.1238.146-.2476.2359-.3714 1.3484-1.9017 4.0225-4.20859 5-6.69549-2.3595-2.34062-6.0112-3.04955-7.573.5739-.4659 1.18175-.4856 2.49309-.0554 3.68839.4302 1.1952 1.2808 2.1924 2.3925 2.8046zm7.4382-3.7923c-.4087-.98533-.9575-1.90634-1.6292-2.73445-.6911 1.55642-1.5867 3.01345-2.663 4.33235-.6404.8665-1.2921 1.7217-1.8089 2.5882.0139.0069.0293.0106.0449.0106s.031-.0037.0449-.0106c2.5506.3376 4.5956-2.0593 6.0113-4.2198zm-7.6629 8.5748c-.1461 1.3953-.2023 2.6781-.2023 3.9947 3.3708-.7652 6.6517-2.6444 7.9775-5.8965.7484-1.9566.7683-4.1177.0562-6.0878-1.6292 2.2506-4.0112 4.3323-6.5281 3.9385-.7422 1.2342-1.2027 2.6176-1.3483 4.0511zm-2.3034 8.2934c0-.9228.0562-1.8343.0562-2.8245-.0899 0-.2135 0-.3371.0675-5.1124.9227-3.5843 6.6055-.0562 8.541 0-1.8455.2809-3.601.3371-5.784zm13.3371-21.96577c.6993-.83268 1.6845-1.37301 2.7617-1.51463s2.1683.12573 3.0585.74943c.7677.40287 1.4344.97458 1.9501 1.67227.5157.6977.8669 1.50326 1.0274 2.35628.3933 2.11552-.2135 4.50122-.3146 6.81932-.8876.7652-2.1461 1.7779-3.1573.5514-1.3483-1.6317 2.6966-6.21167-1.1236-6.85308-.351-.05475-.7094-.03708-1.0534.05194-.3439.08901-.666.24749-.9466.46569-1.4382 1.12525-.9101 2.67825-.5168 4.11855.4207 1.4098.2881 2.9273-.3708 4.2424-1.4382 2.892-4.4944 4.7375-6.4045 7.3482-.9602 1.2882-1.6486 2.7586-2.0233 4.3217s-.428 3.1862-.1565 4.7706c.6145 2.2784 1.7061 4.3996 3.2023 6.2229-.7185.358-1.4162.7562-2.0899 1.1928l-.8877.6527c-.3932-.9002-.8876-1.7892-1.382-2.8583-1.4944-3.2633-2.7191-6.4817-2.6629-10.0151 0-1.9355-.0562-3.8147-.0899-5.6264 4.4382-1.2041 8.7303-3.6572 9.2921-8.451.1584-1.7978-.1151-3.6074-.7977-5.2776 1.0112-1.58669 1.5618-3.46594 2.6854-4.94007zm-1.3371 22.64087c-.1705.8779-.1588 1.7815.0345 2.6547.1933.8731.564 1.697 1.0891 2.4204.9438 1.4404 1.8989 2.9145.6404 4.5012-.6848.7951-1.5022 1.4652-2.4157 1.9805-1.8808-1.7037-3.2142-3.9282-3.8315-6.3917-.2098-1.4271-.1331-2.8819.2258-4.279.3588-1.397.9926-2.7083 1.8641-3.8568 1.6854-2.3519 4.2922-4.2086 5.4832-6.8531.6855-1.4038.7865-3.0228.2809-4.5011-1.1236-3.78104 1.3483-4.42245 1.9887-4.29867 3.5955.60766-.7303 5.62647 1.2023 7.15687 1.1236.8552 2.2472.1463 3.2809-.6527v.1238c-.015 1.0699.1483 2.1348.4831 3.1508-.9442 1.1101-1.6379 2.4114-2.0337 3.8148-3.2696-1.1253-7.573 1.9017-8.2696 5.03zm3.0337 5.4127c-.2809-.3938-.5843-.799-.8876-1.1928-.6041-.6909-1.0115-1.5318-1.1795-2.4346s-.0905-1.8343.2244-2.6967c1.0112-2.712 4.4944-4.5575 7.0225-3.7248-1.045 3.5335-1.5281 8.1472-5.1798 10.0489zm-4.573 13.1209c-.9529.1513-1.913.2527-2.8764.3039 0-.3939-.1236-.7652-.1911-1.1253 2-3.1959 7.0225-4.3662 8.4383-7.9559.1978-.4904.292-1.0167.2765-1.5454-.0154-.5288-.1402-1.0486-.3664-1.5266 3.7977-2.5207 4.0112-7.0669 4.9887-11.0616.9287.4675 1.6441 1.2725 2 2.2505 1.6517 4.0849 0 9.3962-2.146 13.0534-2.2254 3.7918-5.8624 6.544-10.1124 7.652zm16.4943-32.9711c-1.955-.5514-3.3707.3376-4.7191 1.5642 0-.5177.0899-1.0353.1573-1.5304.2472-1.8793.7641-3.65722.2135-5.50271-.2975-.99154-.8133-1.90359-1.5094-2.66897-.6962-.76538-1.555-1.36457-2.513-1.75343-.9031-.40346-1.9101-.51189-2.8782-.3099-.968.20198-1.848.70413-2.5151 1.43519-.839 1.22586-1.5434 2.5388-2.1011 3.91603-.1798.30383-.3933.67517-.6068 1.06902-.4561-1.00889-1.0791-1.93338-1.8427-2.73446.4119-1.17208.3556-2.45825-.1573-3.58969-.6005-1.21071-1.5926-2.1822-2.8146-2.756347-1.2221-.5741493-2.6022-.71715-3.9157-.405726-1.5666.251795-3.0188.977563-4.1616 2.079853-1.1428 1.1023-1.9215 2.52837-2.2317 4.08676-.4269 3.0833 1.5281 5.96408 1.6293 9.06988.1011 3.1058-1.2922 5.4689-4.6967 5.3789.6372-2.0873 1.0146-4.2455 1.1236-6.4254-.0476-.8369-.2859-1.6517-.6965-2.3821-.4107-.7303-.9828-1.3568-1.6726-1.8315-.68978-.47469-1.47892-.78493-2.30693-.90695-.82802-.12202-1.67294-.05259-2.47002.20298-1.56061.51101-2.92677 1.48997-3.91352 2.80427-.986757 1.3143-1.5464545 2.9005-1.60333 4.5439 0 1.8455 1.1236 3.0045 2.32584 4.3661.65169.7315.79776 1.0128.31461 1.9355-.76405 1.4404-1.808989 2.5094-2.247192 4.1074-.4111246 1.6491-.4761655 3.3657-.191011 5.0413 1.325843 9.3399 9.966253 15.7541 19.348353 17.4871l.2472.0562c.3107.0592.5917.2233.7962.4649.2045.2417.3201.5463.3273.863v7.2469c-.0076.3401-.1422.6651-.3772.9109s-.5534.3945-.8924.4169c-.1236 0-.2472 0-.3371 0-3.9796.3663-7.8894 1.2828-11.61797 2.7232h33.70787c-3.8623-1.4737-7.914-2.3906-12.0337-2.7232-.3429-.0144-.6671-.1603-.9055-.4075s-.3728-.5767-.3754-.9203v-7.2244c.0138-.3136.1319-.6135.3355-.8521.2036-.2385.481-.4021.7881-.4645 5.233-.9591 10.0852-3.3908 13.9887-7.0106 2.3232-2.0842 4.0393-4.7596 4.9663-7.742.4389-1.5383.5725-3.1478.3933-4.7375-.0856-.7314-.2475-1.4518-.4831-2.1493-.314-.6497-.4828-1.3601-.4944-2.0818.0899-.799.8314-1.2604 1.382-1.7892.9603-.8467 1.5795-2.0149 1.7416-3.2859.2809-2.8245-1.4719-6.718-4.5057-7.5845z" fill="#717171" fill-rule="evenodd"/><path d="m29.2135 51.7412h-4.3033v4.3099h4.3033z" fill="#df9257"/><g clip-rule="evenodd" fill="#6b6b6b" fill-rule="evenodd"><path d="m192.809 10.7576-2.045 4.9963h1.461 2.573l-.337-.844zm-5.618 11.4555c2.105-4.8688 4.09-9.6251 5.955-14.26876h.371c.644 1.66543 1.266 3.29706 1.865 4.89506.562 1.4403 1.124 3.0158 1.876 4.76.753 1.9467 1.371 3.4659 1.854 4.5912-.314-.0616-.634-.0918-.955-.0901h-.404c-.19.0149-.378.045-.562.0901-.259-.844-.506-1.5755-.73-2.2506-.304-.844-.618-1.688-.922-2.4757l-.337-.8214h-4.73c-.169.3938-.416 1.069-.775 2.0367-.36.9678-.821 2.2506-1.236 3.4885-.093-.0192-.189-.0192-.281 0-.113 0-.225 0-.36 0-.138-.0209-.278-.0209-.416 0-.06.0416-.129.0686-.202.0787zm-14.719-7.4607c.595 0 2.607-2.1944 6.045-6.5605.284.06252.574.09271.865.09002.291.00955.582-.02074.865-.09002-.642.55172-1.246 1.14569-1.809 1.77796l-1.427 1.51914-2.854 2.982c.483.6527 1.124 1.4404 1.82 2.3407l2.102 2.5656c.775.9565 1.539 1.913 2.314 2.8358-.372-.0569-.747-.0832-1.123-.0788h-.484c-.204.0085-.407.0348-.606.0788-.787-1.1253-1.54-2.1944-2.248-3.1734l-2.247-2.9032c-.494-.6752-.944-1.0128-1.337-1.0128v2.4419 2.4531c0 1.0916.056 1.8343.056 2.1944-.296-.0564-.597-.0828-.898-.0788-.298-.0047-.596.0217-.888.0788 0-.4502.056-1.4067.079-2.8695.022-1.4629 0-2.8695 0-4.1636v-3.601c0-1.3503 0-2.47561-.113-3.37585.293.05711.59.08351.888.07877.301.00401.602-.02238.899-.07877 0 .45012-.056.934-.09 1.49664-.034.56261 0 1.12531 0 1.85671v3.1171c.026.0058.053.0058.078 0zm-13.641-3.9948-8.988 11.4555c-.077-.0516-.167-.079-.259-.0788l-.281.0788c0-.4502.056-1.4067.09-2.8695.034-1.4629 0-2.8695 0-4.1636v-3.601c0-1.3503-.056-2.47561-.112-3.37585.296.05765.597.08405.899.07877.301.00401.602-.02238.899-.07877 0 .13504 0 .70894-.057 1.68794-.056.97901-.056 1.77801-.056 2.34061v3.2296c0 .979.056 2.0255.09 3.2746l8.494-10.51024.506.05626c.202.00191.403-.02848.596-.09002 0 .45012-.057 1.41787-.09 2.847-.034 1.4291 0 2.8132 0 4.1411v3.6572c0 1.3841 0 2.5094.112 3.3759-.593-.1213-1.205-.1213-1.798 0 0-1.2716 0-2.3406.09-3.2634.09-.9227 0-1.868 0-2.847 0-.7652 0-1.6092 0-2.5319s0-1.8567 0-2.847zm-29.483-2.5657c0 .29258-.056.93399-.078 1.9805-.023 1.0465 0 2.1043 0 3.2634v.7539h1.292 2.708 3.977v-.6864c0-.5852 0-1.2378 0-1.913 0-1.74422-.079-2.83575-.079-3.37589.292.06064.59.09081.888.09002.302.00077.603-.0294.899-.09002 0 .45011 0 1.41787-.09 2.84699-.09 1.4291 0 2.8132 0 4.1411v3.6572c0 1.3841 0 2.5094.112 3.3759-.295-.0624-.596-.0926-.898-.0901-.299-.0007-.596.0294-.888.0901 0-1.2716 0-2.3406.079-3.2409.078-.9002 0-1.8567 0-2.847v-.9565c-.169 0-.675 0-1.573 0-.899 0-1.675 0-2.405 0s-1.449 0-2.101 0-1.281 0-1.899 0v4.3099c0 1.2378 0 2.1381.112 2.7345-.295-.0624-.596-.0926-.898-.0901-.299-.0002-.596.03-.888.0901 0-.4501 0-1.4067.079-2.8695.078-1.4629 0-2.8808 0-4.1749v-3.6009c0-1.3504 0-2.47566-.113-3.37589.292.06009.59.09026.888.09002l.899-.14629zm-13.73 2.5657-8.989 11.4555c-.072-.0513-.159-.0789-.247-.0788l-.281.0788c0-.4502 0-1.4067.079-2.8695.078-1.4629 0-2.8695 0-4.1636v-3.601c0-1.3503-.056-2.47561-.113-3.37585.293.05821.59.08462.888.07877.301.00401.603-.02238.899-.07877v1.68794 2.34061 3.2296c0 .979.056 2.0255.078 3.2746l8.394-10.53275.505.05627c.199.0011.396-.02929.585-.09002 0 .45011 0 1.41787-.09 2.847-.09 1.4291 0 2.8132 0 4.1411v3.6572c0 1.3841 0 2.5094.112 3.3759-.593-.1213-1.205-.1213-1.798 0 0-1.2716 0-2.3407.09-3.2634s0-1.868 0-2.847c0-.7652 0-1.6092 0-2.5319s0-1.8567 0-2.847zm-29.2136 11.4555c-.2276-.0579-.4619-.0844-.6966-.0788l-.6966.0788c.1685-.3601.7303-1.598 1.6179-3.7135 1.2135-3.0158 2.1349-4.9963 2.4719-6.0541.8989-2.2506 1.427-3.71346 1.6854-4.50116h.7528c.1686.45011.618 1.64293 1.3708 3.55596.7528 1.913 1.618 4.1636 2.5169 6.3579.9438 2.3969 1.5393 3.826 1.8202 4.3661-.186-.0296-.3736-.0484-.5618-.0562-.1461 0-.2584 0-.3708 0-.1455-.0176-.2926-.0176-.4382 0-.1698.0044-.339.0232-.5056.0562l-4.3596-11.8043h-.2247c-.8427 2.138-1.6854 4.2761-2.4606 6.3579-.7753 2.0818-1.4832 3.8935-1.9663 5.4352zm-16.3146-7.4607c.5843 0 2.5955-2.1944 6.0337-6.5605.288.06188.5819.09206.8764.09002.2911.00754.5819-.02272.8652-.09002-.6461.55088-1.2542 1.14489-1.8202 1.77796l-1.427 1.51914-2.8202 2.982c.4719.6527 1.1236 1.4404 1.809 2.3407.2022.225.8988 1.1252 2.1011 2.5656.7865.9565 1.5393 1.913 2.3258 2.8358-.3718-.0562-.7476-.0826-1.1236-.0788h-.5056c-.2079.0083-.4146.0346-.618.0788-.7865-1.1253-1.5393-2.1944-2.2472-3.1734l-2.2472-2.9032c-.5093-.6752-.9588-1.0128-1.3483-1.0128v2.4419c0 .5401 0 1.3616.0562 2.4531.0562 1.0916 0 1.8343 0 2.1944-.2922-.0577-.5898-.0841-.8876-.0788-.3015-.004-.6027.0224-.8989.0788 0-.4502 0-1.4067.0786-2.8695.0787-1.4629 0-2.8695 0-4.1636v-3.601c0-1.3503 0-2.47561-.1123-3.37585.296.05815.5973.08456.8989.07877.2977.00371.5951-.02268.8876-.07877 0 .45012 0 .934-.0786 1.49664-.0787.56261 0 1.12531 0 1.85671v3.1171c.0548.0513.1272.0795.2022.0788z"/><path d="m197.989 46.8687c-.049.6237-.335 1.2049-.799 1.6237s-1.071.6432-1.696.6268c-.633-.0474-1.261-.1529-1.876-.315-.345-.0891-.7-.1345-1.056-.1351-.281-.0266-.562.0538-.787.2251-.218.2036-.374.465-.449.7539h-.641c.047-.6288.335-1.215.804-1.6349.47-.42 1.084-.6407 1.713-.6157.514.0418 1.022.136 1.517.2814.477.1231.961.2171 1.45.2813.268.0043.531-.0743.752-.2251.225-.1929.389-.447.472-.7314h.596v-.0563zm.247 6.4704-9.472 11.388c-.039-.0315-.084-.0547-.132-.0683-.049-.0135-.099-.0171-.149-.0105-.099-.0034-.197.0242-.281.0788 0-.4502.09-1.3954.09-2.8583s0-2.847 0-4.1411v-3.5784c0-1.3391 0-2.4644-.135-3.3759.61.105 1.233.105 1.843 0 0 .1351 0 .6977-.056 1.6767s0 1.7667 0 2.3294v3.2183c0 .9678.056 2.0143.09 3.2409l8.865-10.4653.528.0563c.21.0045.418-.0259.618-.09 0 .4501-.056 1.4066-.09 2.8357s0 2.7907 0 4.1073v3.646c0 1.3728 0 2.4869.112 3.3759-.314-.0622-.634-.0924-.955-.0901-.316-.0006-.632.0296-.943.0901 0-1.2604.078-2.3294.078-3.2521 0-.9228 0-1.8455 0-2.8245 0-.754 0-1.5979 0-2.5207.081-.9392.1-1.8828.056-2.8245zm-20.551 10.9153c.758.0396 1.516-.0903 2.217-.3803.702-.29 1.33-.7328 1.84-1.2963 1.019-1.3812 1.517-3.0798 1.404-4.7938.117-1.7214-.381-3.4282-1.404-4.8163-1.088-1.0639-2.548-1.6596-4.068-1.6596s-2.98.5957-4.067 1.6596c-1.045 1.3876-1.56 3.1042-1.45 4.8388-.115 1.7004.393 3.3845 1.427 4.7375.51.5691 1.142 1.0155 1.848 1.3059.706.2903 1.469.4171 2.231.3708zm0 .754c-.999.0568-2-.085-2.945-.4172-.945-.3321-1.815-.8482-2.56-1.5183-.686-.685-1.221-1.5069-1.569-2.4122-.349-.9054-.503-1.8739-.454-2.8429-.045-.9722.113-1.9432.466-2.8502.352-.9071.89-1.7302 1.579-2.4162.734-.6734 1.592-1.195 2.528-1.5349.935-.3399 1.928-.4913 2.922-.4456 1-.0599 2.002.0826 2.946.419s1.811.8598 2.548 1.539c.686.6919 1.219 1.5201 1.565 2.431.347.911.499 1.8845.446 2.8579.038.9642-.127 1.9255-.486 2.8213-.358.8958-.9 1.706-1.592 2.3775-.721.6753-1.57 1.1994-2.496 1.5414-.926.3421-1.911.4952-2.898.4504zm-16.853-7.697c.618 0 2.741-2.1831 6.382-6.5267.291.0624.589.0926.887.09.31.0108.62-.0195.922-.09-.678.5477-1.319 1.1378-1.922 1.7667l-1.528 1.4629-2.955 2.9707c.494.6415 1.124 1.4292 1.921 2.3294.203.2138.922 1.1253 2.248 2.5432l2.46 2.8245c-.398-.0573-.8-.0837-1.202-.0788h-.494c-.219.0078-.437.0341-.652.0788-.809-1.1253-1.618-2.1831-2.371-3.1621l-2.348-2.8808c-.539-.6752-1.011-1.0127-1.427-1.0127v2.4418c0 .5289 0 1.3391.056 2.4307.056 1.0915 0 1.823 0 2.1831-.629-.105-1.27-.105-1.899 0 0-.4502.079-1.3954.079-2.8583s0-2.847 0-4.1411v-3.5334c0-1.3391-.056-2.4644-.135-3.3759.315.058.635.0844.955.0788.316.0041.633-.0223.944-.0788 0 .4501-.079.9228-.079 1.4854v1.8455 3.1058h.113zm-4.495 6.5492c-1.368.8379-2.962 1.231-4.562 1.1253-.953.0642-1.909-.0696-2.808-.393s-1.722-.8294-2.416-1.4863c-.651-.715-1.153-1.5533-1.475-2.4656-.322-.9122-.459-1.8798-.402-2.8457-.045-.9712.113-1.941.463-2.8477.35-.9068.885-1.7305 1.571-2.4187.746-.6808 1.62-1.2064 2.571-1.5464s1.96-.4875 2.968-.4341c1.523-.0189 3.029.3244 4.394 1.0015-.217.6227-.33 1.2763-.338 1.9355-.433-.6994-1.044-1.2704-1.771-1.6542-.727-.3837-1.543-.5663-2.363-.5289-.742-.0431-1.484.0858-2.168.3766s-1.292.7357-1.776 1.3001c-1.035 1.3832-1.541 3.0917-1.427 4.8163-.093 1.6821.399 3.3444 1.393 4.7037.463.5616 1.051 1.0075 1.716 1.3025.665.2949 1.389.4307 2.116.3967 1.651-.0177 3.243-.6196 4.494-1.6992l-.135 1.3391zm-21.056-6.9431c.183.0128.367.0128.551 0h.595c.942.0758 1.881-.1831 2.652-.7314.299-.2881.531-.6398.677-1.0294.145-.3895.202-.8068.165-1.2212.033-.3499-.014-.7025-.137-1.0317s-.318-.6266-.57-.87c-.684-.5042-1.526-.744-2.371-.6752-.281-.0222-.562-.0222-.843 0-.211.0444-.425.0708-.64.0787 0 .1913-.079.619-.113 1.2829-.033.6639 0 1.1253 0 1.3166v2.6894zm1.73-6.0991c1.246-.0751 2.489.177 3.607.7315.398.2477.721.6001.933 1.0188.212.4186.305.8875.269 1.3555.019.3979-.041.7955-.176 1.1701s-.342.7188-.61 1.013c-.649.6202-1.481 1.0148-2.371 1.1253 2.539.2813 3.798 1.3954 3.798 3.3759.038.59-.067 1.1805-.305 1.7213-.239.5408-.605 1.0158-1.066 1.3845-1.217.7961-2.663 1.1679-4.112 1.0578-.304 0-.753 0-1.315 0s-.921 0-1.124 0h-.494c-.168-.0111-.337-.0111-.506 0 0-.4501 0-1.3954.079-2.8808s0-2.8807 0-4.1973v-3.5785c0-1.3391 0-2.4531-.112-3.3758l1 .09h1.011 1.427zm-1.73 6.9994v2.0142 2.2506c0 .5739 0 1.1253.09 1.7105.446.1029.902.1595 1.359.1688 1.014.0611 2.017-.2378 2.832-.844.346-.2822.62-.6426.799-1.0514.18-.4088.26-.8545.235-1.3005.041-.4351-.024-.8738-.19-1.2779-.167-.4041-.429-.7612-.765-1.0402-.885-.5476-1.918-.8034-2.956-.7314l-1.427.09zm-11.955 6.4366c.758.0396 1.515-.0903 2.217-.3803.701-.29 1.33-.7328 1.839-1.2963 1.028-1.3781 1.534-3.077 1.427-4.7938.116-1.7214-.381-3.4282-1.404-4.8163-1.088-1.0639-2.548-1.6596-4.068-1.6596s-2.98.5957-4.067 1.6596c-1.038 1.3902-1.545 3.1069-1.427 4.8388-.115 1.7004.392 3.3845 1.427 4.7375.503.5706 1.131 1.0184 1.834 1.309s1.463.4163 2.222.3677zm0 .754c-1 .0568-2.001-.085-2.946-.4172-.945-.3321-1.815-.8482-2.56-1.5183-.686-.685-1.22-1.5069-1.569-2.4122-.348-.9054-.503-1.8739-.453-2.8429-.046-.9722.113-1.9432.465-2.8502.352-.9071.89-1.7302 1.58-2.4162.733-.6734 1.592-1.195 2.527-1.5349s1.928-.4913 2.922-.4456c.999-.0584 1.998.0849 2.94.4213.942.3363 1.807.8589 2.543 1.5367.686.6919 1.219 1.5201 1.565 2.431.347.911.499 1.8845.447 2.8579.039.9633-.125 1.9242-.481 2.82-.356.8957-.897 1.7063-1.587 2.3788-.721.6753-1.569 1.1994-2.496 1.5414-.926.3421-1.911.4952-2.897.4504zm-16.854-7.697c.618 0 2.742-2.1831 6.382-6.5267.292.0624.589.0926.888.09.309.0108.619-.0195.921-.09-.677.5477-1.319 1.1378-1.921 1.7667l-1.506 1.4629-2.955 2.9707c.494.6415 1.124 1.4292 1.921 2.3294.203.2138.922 1.1253 2.248 2.5432.808.9452 1.651 1.9017 2.46 2.8245-.398-.0573-.8-.0837-1.202-.0788h-.494c-.22.0078-.438.0341-.652.0788-.809-1.1253-1.618-2.1831-2.371-3.1621l-2.326-2.8358c-.539-.6751-1.011-1.0127-1.427-1.0127v2.4419 2.4306 2.1831c-.315-.0575-.635-.0839-.955-.0788-.32-.0041-.64.0223-.955.0788 0-.4502.09-1.3954.09-2.8583s0-2.847 0-4.1411v-3.5784c0-1.3391-.056-2.4644-.112-3.3759.315.0575.635.0839.955.0788.32.0041.64-.0223.955-.0788 0 .4501-.09.9228-.09 1.4854v1.8455 3.1058h.079zm-5.618-6.493v2.2506c0 1.9918-.079 3.2409-.079 3.781v3.8035 3.1058h1.124c-.112.639-.169 1.2867-.169 1.9355l.057 1.3166h-.203c-.208-.6805-.569-1.3041-1.056-1.823-.459-.3393-1.0266-.4993-1.5953-.4501-.3371 0-1.1236 0-2.1798 0h-2.045c-.6404 0-1.3371 0-2.1011 0s-1.5393 0-2.3483 0c-.4583-.0095-.9166.0168-1.3708.0788 0-.4501.0899-1.3954.0899-2.8808s0-2.8807 0-4.1973v-3.6235c0-1.3391 0-2.4531-.1124-3.3758.1603.022.3229.022.4832 0h.4382c.1869.0161.3749.0161.5618 0 .1307.0147.2626.0147.3932 0v2.9145c0 1.9355-.0561 3.3759-.0561 4.2536v2.6107 3.1283h8.2696c0-.4726 0-1.7667 0-3.8373 0-2.0705 0-3.1283 0-3.162 0-.6977 0-1.4854 0-2.3519 0-2.1493-.0899-3.3759-.0899-3.5784.3156.0528.6351.0791.9551.0787h.3367c.187.0259.376.0259.562 0zm-22.2697 13.436c.758.0396 1.5153-.0903 2.2169-.3803s1.3299-.7328 1.8393-1.2963c1.0278-1.3781 1.5335-3.077 1.427-4.7938.1164-1.7214-.3813-3.4282-1.4045-4.8163-1.0874-1.0639-2.5472-1.6596-4.0674-1.6596s-2.9801.5957-4.0674 1.6596c-1.0328 1.3929-1.5385 3.1075-1.427 4.8388-.11 1.6998.3968 3.3822 1.427 4.7375.5037.5706 1.1311 1.0184 1.8341 1.309s1.4631.4163 2.222.3677zm-7.4606-5.8515h-1.9326v3.2746c0 1.2266.0562 2.2506.1123 3.0496-.6286-.105-1.2702-.105-1.8988 0 0-.4502.0786-1.3954.0786-2.8583s0-2.847 0-4.1411v-3.5784c0-1.3391-.0562-2.4644-.1124-3.3759.3112.058.6274.0844.9439.0788.3201.0041.6399-.0223.955-.0788 0 .4164-.0899 1.3166-.0899 2.6332v3.8598h1.9439c-.0357-.9229.1309-1.8425.4881-2.694.3571-.8515.8962-1.6143 1.5793-2.2348 1.5041-1.2688 3.4283-1.9273 5.3932-1.8455.9982-.057 1.9977.0868 2.9395.4231s1.8067.8582 2.5437 1.5349c.6816.6948 1.2121 1.5234 1.5583 2.4336.3461.9103.5003 1.8824.4529 2.8553.0491.9762-.1098 1.9518-.4663 2.8617-.3565.91-.9023 1.7336-1.6011 2.4159-.7293.6732-1.5841 1.1956-2.5153 1.5374-.9313.3418-1.9207.4962-2.9117.4544-1.959.0943-3.8825-.5479-5.3932-1.8005-.6967-.5824-1.2468-1.3208-1.606-2.1555-.3591-.8347-.5172-1.7423-.4614-2.6495z"/><path d="m182.607 35.8407-1.461.2701c-.716.1055-1.402.3625-2.011.7539-.193.1589-.346.3606-.448.5892-.101.2285-.148.4776-.136.7274-.036.5024.125.9989.449 1.3841.167.1594.365.2834.581.3646s.447.1179.677.108c.337.012.672-.0636.971-.2194s.553-.3864.737-.6695c.444-.7048.657-1.5313.607-2.3632v-.9452zm-4.787-2.3969v-1.1253c.457-.3161.957-.5661 1.483-.7427.515-.1723 1.054-.2598 1.596-.2588.424-.032.85.0211 1.253.1564.404.1353.776.3499 1.095.6313.287.3238.506.7015.645 1.1112.139.4096.195.8429.164 1.2744v4.5012c-.007.2174.024.4343.09.6414.029.0698.079.1284.144.167.065.0385.141.055.216.0468.149.018.3.018.449 0 .127-.0338.248-.087.36-.1575l.146.4389c-.239.1596-.496.2917-.764.3938-.187.0712-.385.1093-.585.1125-.316.0198-.632-.0381-.921-.1688-.175-.1134-.323-.2658-.43-.4453-.107-.1796-.171-.3814-.188-.5899l-.663.5851c-.268.2257-.572.4045-.899.5289-.477.1977-.989.2935-1.505.2813-.664.0082-1.309-.219-1.821-.6414-.245-.2082-.44-.4691-.57-.7633-.13-.2943-.193-.6142-.182-.9359-.027-.3959.052-.7918.227-1.1475.176-.3558.442-.6586.773-.878.793-.4106 1.66-.6592 2.55-.7314.578-.042 1.144-.1828 1.674-.4164.14-.0986.251-.2334.32-.39.069-.1565.095-.329.074-.499.031-.6207-.178-1.2295-.585-1.6992-.224-.2116-.489-.3747-.779-.4793-.29-.1045-.599-.1482-.906-.1283-.587-.0231-1.163.16-1.629.5176-.317.1979-.556.5003-.674.8552h-.147zm-6.505-1.3954c-.419-.016-.834.0798-1.203.2776-.369.1977-.679.4903-.899.8477-.539 1.0072-.788 2.145-.719 3.2859 0 2.4194.888 3.646 2.652 3.646.422.0165.84-.0789 1.213-.2765s.687-.4904.911-.8488c.56-.9717.822-2.0872.752-3.2071.07-.9772-.175-1.9509-.696-2.7795-.226-.3201-.528-.5777-.88-.7489s-.741-.2504-1.131-.2301zm-2.63-.5401c-.045.3509-.071.704-.078 1.0578v.5626c.331-.5566.789-1.027 1.337-1.3728.563-.2875 1.188-.4305 1.82-.4164.54-.0351 1.08.0553 1.579.2642s.943.5306 1.297.9399c.741 1.0221 1.095 2.2742 1 3.5334.077 1.2525-.325 2.4873-1.123 3.4547-.368.4097-.822.7338-1.328.9496-.507.2157-1.055.318-1.605.2994-.602.0341-1.202-.0941-1.737-.3712-.536-.2771-.987-.6929-1.308-1.2042v2.4307c0 .3375 0 1.0015.057 2.003.056 1.0015 0 1.7554 0 2.2506-.266-.0627-.537-.0929-.809-.0901-.273.0003-.544.0305-.809.0901 0-.3376 0-1.4179.056-3.2634s0-3.5559 0-5.1426c0-1.3166 0-2.4869 0-3.4321 0-.9453 0-1.8343 0-2.5882.123.0163.247.0163.371 0h.415c.119.0177.241.0177.36 0h.449zm-8.359 8.6648c.417.0228.834-.0564 1.213-.2309.38-.1745.712-.439.967-.7706.561-.8885.825-1.9332.752-2.9821.074-1.1024-.188-2.2013-.752-3.1508-.243-.3691-.578-.6675-.973-.8651s-.834-.2874-1.275-.2602c-1.955 0-2.91 1.3616-2.91 4.0848s.978 4.1299 2.933 4.1299zm0 .6076c-.609.017-1.214-.0899-1.78-.3143s-1.08-.5615-1.512-.991c-.827-.9295-1.284-2.131-1.284-3.3759s.457-2.4463 1.284-3.3759c.424-.4338.934-.774 1.497-.9988s1.167-.3292 1.772-.3065c.611-.0226 1.22.0817 1.788.3064.569.2246 1.085.5648 1.516.9989.854.9125 1.314 2.1256 1.281 3.3759.047.6192-.038 1.2414-.25 1.8248-.213.5834-.547 1.1147-.981 1.558-.435.4434-.958.7886-1.537 1.0125-.578.224-1.198.3215-1.817.2859zm-5.697-.9452c-.433.337-.93.582-1.46.7202-.602.1571-1.222.2328-1.843.225-.604.0256-1.207-.0752-1.77-.2961s-1.074-.557-1.5-.9867c-.849-.914-1.302-2.1281-1.258-3.3759-.033-.6408.067-1.2814.293-1.8817.227-.6002.574-1.1472 1.021-1.6067.466-.4394 1.016-.7796 1.616-1.0001.601-.2205 1.24-.3167 1.879-.2827 1.094-.0038 2.172.267 3.135.7877-.228.5277-.397 1.0786-.506 1.6429-.193-.54-.551-1.0055-1.023-1.3306-.472-.3252-1.034-.4935-1.606-.4811-.457-.0208-.912.0709-1.326.2671-.413.1961-.772.4908-1.045.8582-.611.8905-.908 1.9598-.843 3.0383-.058 1.0722.269 2.1299.922 2.982.297.3635.673.6539 1.099.849.427.195.893.2896 1.361.2763.554-.0228 1.098-.1583 1.599-.3981.5-.2399.946-.5792 1.311-.9973v.6977.3939zm-8.989 0c-.433.337-.93.582-1.46.7202-.602.1571-1.221.2328-1.843.225-.604.0256-1.207-.0752-1.77-.2961s-1.074-.557-1.5-.9867c-.422-.4512-.751-.982-.967-1.5615s-.315-1.1963-.291-1.8144c-.027-.644.08-1.2866.314-1.887.234-.6005.59-1.1458 1.046-1.6014.469-.4436 1.024-.7863 1.631-1.0069s1.252-.3145 1.897-.2759c1.094-.0038 2.172.267 3.134.7877-.227.5277-.396 1.0786-.505 1.6429-.193-.54-.551-1.0055-1.023-1.3306-.472-.3252-1.034-.4935-1.606-.4811-.457-.0208-.912.0709-1.326.2671-.413.1961-.772.4908-1.045.8582-.611.8905-.908 1.9598-.843 3.0383-.058 1.0722.269 2.1299.921 2.982.297.3635.674.6539 1.1.849.427.195.892.2896 1.361.2763.554-.0228 1.098-.1583 1.598-.3981.501-.2399.947-.5792 1.312-.9973l-.056.6977v.3939zm-9.685-.1576c-.935.7273-2.085 1.1231-3.27 1.1253-.611.0247-1.22-.0787-1.789-.3035-.569-.2247-1.084-.566-1.514-1.0018-.849-.914-1.302-2.1281-1.258-3.3759-.057-1.2694.387-2.5103 1.236-3.4546.413-.4364.914-.7795 1.47-1.0066.556-.227 1.154-.3327 1.754-.31.529-.0325 1.059.0514 1.552.2458s.937.4946 1.302.8795c.721.8589 1.084 1.9634 1.011 3.0833v.4501h-6.651c-.073 1.0776.22 2.1482.831 3.0383.294.3466.664.6196 1.081.7974.418.1778.871.2554 1.324.2266.56-.0046 1.114-.1227 1.627-.347.514-.2243.977-.5503 1.361-.9583v.5513c-.007.1312-.007.2627 0 .3939zm-6.202-4.3999h5.078v-.3375c.05-.8015-.176-1.5959-.64-2.2506-.216-.2614-.49-.4686-.8-.6054-.31-.1367-.648-.1991-.987-.1823-.367-.0021-.73.0764-1.064.23s-.63.3785-.868.6589c-.517.7106-.782 1.5742-.753 2.4532zm-9.337.6415c-.052 1.0403.168 2.0762.64 3.0045.162.297.401.5447.692.717.29.1723.622.2628.96.262.432.0094.856-.1139 1.215-.3533.36-.2394.638-.5835.796-.9858.38-.828.561-1.7337.528-2.6444.052-.9864-.169-1.968-.64-2.8358-.18-.3126-.441-.5707-.756-.747-.314-.1763-.671-.2642-1.031-.2545-.356-.014-.709.0752-1.016.2568-.306.1816-.555.448-.714.7672-.442.8697-.655 1.8381-.618 2.8133zm0 3.1733v3.6459c0 1.0016.09 1.9806.168 2.9596-.163-.0277-.33-.0277-.494 0-.131.01-.262.01-.393 0h-.427c-.179.0131-.356.0432-.528.09 0-.5852 0-1.5867.089-3.0158.09-1.4291.079-2.6107.079-3.5897-.271.4101-.614.7683-1.011 1.0578-.486.3531-1.074.5386-1.674.5289-.485-.0289-.957-.1686-1.38-.4085-.423-.24-.785-.5737-1.058-.9756-.828-1.0515-1.255-2.3642-1.203-3.7023-.057-1.0895.26-2.1658.899-3.0495.359-.4342.814-.7784 1.329-1.005.515-.2267 1.076-.3295 1.637-.3003.572-.0009 1.123.2164 1.54.6076.345.3425.653.7196.921 1.1253 0-.8665 0-1.5641 0-2.093 0-2.1381-.09-3.2521-.09-3.3759l.809.09h.393c.135-.0143.267-.0446.394-.09v3.0608c0 1.3053-.056 2.1268-.056 2.4306.234-.4035.547-.7556.921-1.0353.453-.3884 1.022-.6142 1.618-.6414.558-.0482 1.12.0439 1.634.2679s.964.5728 1.31 1.015c.593.9058.877 1.9797.809 3.0608.055 1.3189-.342 2.6171-1.124 3.6797-.273.3867-.633.7042-1.05.9269-.418.2228-.881.3446-1.354.3559-.614.0026-1.215-.1733-1.731-.5064-.343-.3442-.651-.721-.921-1.1253zm-1.427-3.1733c.059-.9771-.155-1.9513-.618-2.8133-.169-.3166-.422-.5801-.732-.7609-.309-.1809-.663-.2719-1.021-.2631-.361-.007-.718.082-1.034.2579s-.579.4325-.764.7436c-.471.8678-.692 1.8494-.64 2.8358-.036.9109.145 1.8172.528 2.6444.156.3951.426.7341.777.973.351.2388.765.3664 1.189.3661.342-.0054.676-.1048.965-.2874.29-.1826.523-.4413.676-.7479.523-.8894.759-1.9193.674-2.9482zm-12.079 4.2648c.417.0239.834-.0549 1.214-.2295s.712-.4396.966-.772c.565-.8871.833-1.9319.764-2.982.071-1.1036-.196-2.2026-.764-3.1508-.242-.37-.577-.669-.972-.8667s-.835-.287-1.275-.2586c-1.955 0-2.91 1.3616-2.91 4.0848s.977 4.1298 2.932 4.1298zm0 .6077c-.608.017-1.214-.0899-1.78-.3143s-1.08-.5616-1.512-.9911c-.827-.9295-1.284-2.131-1.284-3.3758 0-1.2449.457-2.4464 1.284-3.3759.424-.4338.934-.774 1.497-.9988s1.167-.3292 1.773-.3066c.61-.0225 1.219.0818 1.788.3064.568.2247 1.084.5648 1.515.999.425.4504.757.9806.977 1.5599s.323 1.1965.304 1.816c.024.62-.077 1.2386-.297 1.8186-.22.5801-.555 1.1097-.984 1.5572-.898.8298-2.082 1.2777-3.303 1.2491zm-10.3707-8.7436c-.4171-.0175-.8313.0777-1.199.2757s-.6754.4915-.8909.8496c-.5435 1.0061-.7964 2.1439-.7303 3.2859 0 2.4194.8989 3.646 2.6629 3.646.4216.0165.8401-.0789 1.213-.2765.373-.1976.6871-.4904.9106-.8488.5555-.9736.817-2.0877.7528-3.2071.0691-.9772-.175-1.9509-.6966-2.7795-.2264-.3217-.5309-.5804-.8847-.7517s-.7454-.2495-1.1378-.2273zm-2.618-.5401c-.0479.3508-.0779.7039-.0898 1.0578v.5626c.3387-.5548.8-1.0245 1.3483-1.3728.559-.2874 1.1808-.4305 1.809-.4164.5398-.036 1.0805.054 1.5797.263.4991.2089.943.5311 1.2967.9411.7448 1.0206 1.1028 2.2728 1.0108 3.5334.077 1.2525-.325 2.4873-1.1232 3.4547-.371.4094-.8264.7331-1.3347.9488s-1.0574.3181-1.6091.3002c-.5973.0268-1.191-.106-1.7202-.3849-.5292-.2788-.9747-.6935-1.291-1.2017v2.4419c0 .3375 0 1.0015.0561 2.003.0562 1.0015 0 1.7554 0 2.2506-.2688-.0628-.5442-.093-.8202-.0901-.2721.0015-.5432.0317-.809.0901 0-.3376 0-1.4179 0-3.2634s0-3.5559 0-5.1426c0-1.3166 0-2.4869 0-3.4321 0-.9453 0-1.8343 0-2.5882.1193.0162.2403.0162.3596 0h.4157c.1229.0183.2479.0183.3708 0h.4494zm-10.2022 0c-.0562.5064-.0899.8665-.0899 1.0578v.4726c.3814-.5284.8671-.9727 1.427-1.3053.4852-.2789 1.0361-.4227 1.5955-.4164.3482-.0126.6948.0538 1.0139.194.319.1403.6023.351.8288.6162.7206 1.0797 1.0462 2.3758.9213 3.6685v2.847c0 1.1703.0562 1.7779.0562 1.9467-.1189-.0208-.2406-.0208-.3595 0l-.3484-.0787c-.2647-.0011-.5287.0291-.7865.09 0-.6752 0-1.5867 0-2.7345s0-1.8117 0-2.0593c.0578-.9197-.084-1.8411-.4157-2.7007-.1497-.2706-.3752-.4915-.6487-.6355s-.5831-.2047-.8906-.1747c-.3582-.0239-.7162.0491-1.0365.2115-.3202.1623-.5909.408-.7837.7113-.429.7924-.6312 1.688-.5843 2.5881v2.847 1.9468c-.119-.0208-.2406-.0208-.3596 0h-.4494c-.2648-.0011-.5288.0292-.7865.09 0-.6752 0-1.5867 0-2.7345s.0562-1.8117.0562-2.0592c0-.664 0-1.2266 0-1.643 0-1.6654-.0899-2.5544-.0899-2.6669.2581.057.5221.0835.7865.0787h.4157c.1673-.0784.3453-.1315.5281-.1575z"/></g></g></svg>