<svg fill="none" height="48" viewBox="0 0 488 48" width="488" xmlns="http://www.w3.org/2000/svg" xmlns:xlink="http://www.w3.org/1999/xlink"><clipPath id="a"><path d="m0 0h488v48h-488z"/></clipPath><g clip-path="url(#a)"><path d="m21.0502 45.9977c6.3024-1.0823 13.1158-1.5152 19.5885-1.9481 3.7473-.2165 7.3244-.3247 11.0717-.4329 5.2804-.2165 10.5607-.3247 16.0114-.3247 10.2201-.1082 20.2698-.2165 30.4899-.2165 20.2693 0 40.5393-.1082 60.9793-.7576 21.122-.6494 42.073-1.2987 63.194-1.9481 19.93-.6494 39.859-1.2988 59.958-1.7317 19.929-.5411 40.029-.9741 59.958-1.7317 20.44-.8658 40.88-1.2987 61.32-1.6234 9.709-.2165 19.418-.4329 29.127-1.0823 5.11-.3247 10.05-.7576 15.16-1.1906 4.94-.4329 9.879-.6493 14.819-.974 4.599-.3247 9.028-.2165 13.627 0 3.236-.2165 5.791-1.2988 7.495-3.1387.851-1.1905 1.873-2.2728 2.725-3.4634 1.703-3.0304 2.555-6.1691 2.385-9.416 0-3.2469-.682-6.38553-2.385-9.41597-.852-1.19053-1.874-2.27283-2.725-3.46336-1.704-1.83991-4.088-2.81398-7.495-3.13867-2.555.10823-4.94.32469-7.495.43292-2.214.10823-4.599.10823-6.813.10823-4.94 0-9.709.10823-14.649.21646-10.22.21646-20.27.64938-30.49.86584-19.759.32469-39.517.43292-59.106 1.19053-10.561.43292-21.121.86584-31.682 1.19053-9.539.32469-19.248.54115-28.787.75761-20.44.43292-40.88 1.0823-61.32 1.73168-20.099.64938-40.369 1.29876-60.469 1.94814-11.071.32469-22.313.75761-33.385 1.0823-10.05.32469-19.929.32469-29.979.43292-20.44.10824-40.8801.21644-61.3203.97404-5.11.2165-10.0497.433-14.9894.8659-4.088.3247-8.176.7576-12.0937 1.2987-3.066.4329-6.132 1.0823-9.0277 1.7317-1.7034.3247-3.4067.9741-4.93972 1.6235-3.06602 1.5152-5.11003 3.4633-6.30237 5.8444-2.725349 4.5456-3.066018 9.9571-1.87368 14.7193.68134 2.8139 2.21435 5.5197 4.59903 7.9007 1.19234.7577 2.38468 1.5153 3.57702 2.2729 2.72532 1.0823 5.45072 1.0823 8.00572 0 .6813-.4329 2.044-.8659 3.2363-1.1906z" fill="#feeab5"/></g></svg>