<svg fill="none" height="108" viewBox="0 0 246 108" width="246" xmlns="http://www.w3.org/2000/svg" xmlns:xlink="http://www.w3.org/1999/xlink"><clipPath id="a"><path d="m0 0h241.733v98.2377h-241.733z" transform="matrix(.99926105 -.03843647 .03843647 .99926105 0 9.2915)"/></clipPath><g clip-path="url(#a)"><path d="m110.718 97.4845c26.151-1.5994 55.25-5.0167 83.646-12.9399 8.881-2.2534 17.464-5.5504 25.57-9.8221 3.658-1.9859 7.104-4.3396 10.285-7.0246 2.309-2.051 4.222-4.5084 5.643-7.25 3.363-6.4427 2.106-12.8717-3.584-17.35-3.407-2.6195-7.121-4.813-11.06-6.5318-11.37-4.9016-23.248-8.5311-35.417-10.8223-10.059-1.8509-20.262-2.8148-30.49-2.8803-1.201.0938-2.41-.0177-3.573-.3297-.847-.3463-2.015-1.4882-1.939-2.1603.123-.5407.356-1.0504.684-1.4974s.744-.8218 1.223-1.1013c1.009-.3662 2.086-.5026 3.154-.3991 16.586-.7895 32.738 1.8974 48.541 6.6684 7.711 2.354 15.284 5.1401 22.682 8.3449 3.922 1.7514 7.554 4.0896 10.772 6.9343 6.779 5.8632 8.434 14.0951 5.028 22.3829-1.796 4.2312-4.568 7.9769-8.09 10.9301-6.182 5.3768-13.394 8.9371-20.917 11.9412-14.564 5.7876-29.742 9.3639-45.102 12.1517-18.282 3.3168-36.754 5.4818-55.308 6.4838-22.239 1.209-44.3843.924-66.3303-3.3707-8.7504-1.592-17.2074-4.5067-25.0806-8.644-5.1801-2.6057-9.7783-6.2345-13.51662-10.6672-5.96841-7.4474-6.849054-15.5703-2.98961-24.2164 2.27108-4.7514 5.41772-9.0319 9.27503-12.6172 9.9398-9.7764 21.8387-16.5474 34.5068-22.0348 16.5177-7.1633 33.855-11.4035 51.573-14.282 22.6393-3.47619 45.6053-4.32566 68.4393-2.5315 19.765 1.42414 39.307 4.28364 58.2 10.6026 2.417.8035 4.755 1.8373 7.116 2.8197 1.643.6944 2.734 1.8267 2.115 3.7698-.462 1.4572-2.009 1.946-4.125 1.0804-11.917-4.8574-24.503-7.0628-37.098-9.2046-14.743-2.3792-29.639-3.6924-44.571-3.92964-26.409-.71928-52.7761 2.53804-78.2161 9.66274-13.7831 3.7364-26.9651 9.4131-39.1504 16.8598-6.3677 3.801-12.1238 8.5433-17.073 14.0661-1.8534 2.1163-3.4788 4.4218-4.8492 6.8786-4.18818 7.6487-3.21201 14.9724 3.041 20.9567 3.2413 3.0031 6.8302 5.6076 10.6901 7.7582 8.5433 4.7978 17.9513 7.1254 27.558 8.713 18.3503 3.0568 36.9281 3.4913 58.7376 2.6019z" fill="#ff7a00"/></g></svg>